<?xml version="1.0" encoding="UTF-8"?>
<!DOCTYPE svg PUBLIC "-//W3C//DTD SVG 1.1//EN" "http://www.w3.org/Graphics/SVG/1.1/DTD/svg11.dtd">
<svg xmlns="http://www.w3.org/2000/svg" version="1.1" width="343px" height="648px" style="shape-rendering:geometricPrecision; text-rendering:geometricPrecision; image-rendering:optimizeQuality; fill-rule:evenodd; clip-rule:evenodd" xmlns:xlink="http://www.w3.org/1999/xlink">
<g><path style="opacity:0.493" fill="#000000" d="M 342.5,141.5 C 342.5,144.167 342.5,146.833 342.5,149.5C 330.716,105.703 319.216,61.7029 308,17.5C 313.47,66.7602 319.637,115.927 326.5,165C 326.167,165.167 325.833,165.333 325.5,165.5C 307.049,120.32 288.882,74.9867 271,29.5C 282.51,77.2085 294.177,124.875 306,172.5C 282.079,129.661 258.413,86.6606 235,43.5C 234.833,44 234.667,44.5 234.5,45C 252.76,90.4657 270.593,135.966 288,181.5C 258.756,142.011 229.756,102.344 201,62.5C 222.822,104.466 245.489,146.133 269,187.5C 270.187,189.044 270.52,190.711 270,192.5C 236.333,156.5 202.667,120.5 169,84.5C 170.332,87.4802 171.999,90.4802 174,93.5C 200.911,129.656 227.578,165.989 254,202.5C 254.667,203.5 254.667,204.5 254,205.5C 217.292,174.456 180.292,143.79 143,113.5C 142.833,113.833 142.667,114.167 142.5,114.5C 175.188,149.52 207.855,184.52 240.5,219.5C 222.5,208.5 204.5,197.5 186.5,186.5C 185.5,185.167 184.5,183.833 183.5,182.5C 198.112,190.81 212.445,199.643 226.5,209C 227.167,209.667 227.833,209.667 228.5,209C 195.333,173.833 162.167,138.667 129,103.5C 128.517,102.552 128.351,101.552 128.5,100.5C 131.14,100.954 133.473,102.121 135.5,104C 171.667,134.167 207.833,164.333 244,194.5C 215.843,154.087 187.009,113.921 157.5,74C 158.275,72.7705 159.275,72.4372 160.5,73C 194,108.5 227.5,144 261,179.5C 238.09,136.193 214.59,93.0267 190.5,50C 192.137,48.049 193.637,48.2157 195,50.5C 223.333,89.5 251.667,128.5 280,167.5C 262.789,121.72 244.956,76.0537 226.5,30.5C 226.833,29.5 227.5,28.8333 228.5,28.5C 252.333,71.5 276.167,114.5 300,157.5C 288.892,110.234 277.058,63.0668 264.5,16C 264.63,14.9412 265.13,14.1079 266,13.5C 285.245,59.5598 303.911,105.893 322,152.5C 316.454,103.63 310.287,54.7964 303.5,6C 304.009,4.83147 304.842,3.99814 306,3.5C 318.192,49.6056 330.358,95.6056 342.5,141.5 Z"/></g>
<g><path style="opacity:0.499" fill="#000000" d="M 166.5,170.5 C 166.5,171.833 165.833,172.5 164.5,172.5C 148.489,161.623 132.156,151.456 115.5,142C 130.707,154.713 146.041,167.213 161.5,179.5C 161.672,180.492 161.338,181.158 160.5,181.5C 141.707,166.546 123.041,151.379 104.5,136C 101.724,133.584 102.057,132.25 105.5,132C 125.717,145.057 146.051,157.891 166.5,170.5 Z"/></g>
<g><path style="opacity:0.997" fill="#181922" d="M 183.5,182.5 C 184.5,183.833 185.5,185.167 186.5,186.5C 190.988,194.806 195.488,203.14 200,211.5C 209.354,219.688 218.854,227.688 228.5,235.5C 228.167,235.833 227.833,236.167 227.5,236.5C 221.732,233.106 215.732,230.606 209.5,229C 211.914,233.829 214.58,238.496 217.5,243C 244.5,257.833 271.5,272.667 298.5,287.5C 271.661,302.754 244.661,317.754 217.5,332.5C 210.622,347.123 202.622,361.457 193.5,375.5C 194,375.833 194.5,376.167 195,376.5C 200.439,374.954 205.939,374.121 211.5,374C 203.986,377.923 196.319,381.59 188.5,385C 184.427,391.649 180.76,398.482 177.5,405.5C 176.094,405.973 175.427,406.973 175.5,408.5C 174.56,410.612 173.394,412.612 172,414.5C 170.905,413.307 170.072,411.973 169.5,410.5C 169.672,409.508 169.338,408.842 168.5,408.5C 166.246,404.993 164.246,401.327 162.5,397.5C 162.5,396.167 161.833,395.5 160.5,395.5C 159.167,392.167 157.833,388.833 156.5,385.5C 156.167,384.5 155.5,383.833 154.5,383.5C 152.82,380.14 151.153,376.807 149.5,373.5C 149.5,372.167 148.833,371.5 147.5,371.5C 145.934,367.272 143.934,363.272 141.5,359.5C 141.672,358.508 141.338,357.842 140.5,357.5C 138.485,354.131 136.485,350.798 134.5,347.5C 134.672,346.508 134.338,345.842 133.5,345.5C 131.68,341.86 129.847,338.193 128,334.5C 126.035,332.45 123.868,330.783 121.5,329.5C 120.07,328.463 118.403,327.796 116.5,327.5C 112.423,324.773 108.09,322.439 103.5,320.5C 102.713,318.896 101.38,318.229 99.5,318.5C 82.8853,308.521 65.8853,299.021 48.5,290C 47.5,289.167 46.5,288.333 45.5,287.5C 47.9238,285.286 47.2571,284.286 43.5,284.5C 43.5,283.5 43.5,282.5 43.5,281.5C 47.8461,281.666 52.1794,281.499 56.5,281C 69.7011,273.566 83.0345,266.4 96.5,259.5C 97.7095,259.068 98.7095,258.401 99.5,257.5C 102.032,256.404 104.365,255.071 106.5,253.5C 107.492,253.672 108.158,253.338 108.5,252.5C 114.608,249.564 120.608,246.397 126.5,243C 127.719,240.722 129.052,238.555 130.5,236.5C 131.338,236.158 131.672,235.492 131.5,234.5C 132.773,232.287 133.773,229.954 134.5,227.5C 135.833,227.5 136.5,226.833 136.5,225.5C 139.18,220.14 141.847,214.807 144.5,209.5C 145.5,209.167 146.167,208.5 146.5,207.5C 147.82,204.86 149.153,202.193 150.5,199.5C 151.167,199.5 151.5,199.167 151.5,198.5C 154.233,192.702 157.233,187.035 160.5,181.5C 161.338,181.158 161.672,180.492 161.5,179.5C 162.773,177.287 163.773,174.954 164.5,172.5C 165.833,172.5 166.5,171.833 166.5,170.5C 168.067,167.033 169.901,163.7 172,160.5C 176.114,167.729 179.947,175.063 183.5,182.5 Z M 204.5,218.5 C 208.817,221.486 212.817,224.82 216.5,228.5C 210.406,227.481 206.406,224.148 204.5,218.5 Z M 196.5,378.5 C 194.819,380.008 192.819,381.008 190.5,381.5C 191.68,379.087 193.68,378.087 196.5,378.5 Z"/></g>
<g><path style="opacity:0.51" fill="#000000" d="M 151.5,198.5 C 151.5,199.167 151.167,199.5 150.5,199.5C 132.615,191.892 114.949,183.726 97.5,175C 96.5,174.333 95.5,174.333 94.5,175C 111.984,185.662 129.317,196.495 146.5,207.5C 146.167,208.5 145.5,209.167 144.5,209.5C 123.904,195.526 102.904,182.026 81.5,169C 80.2164,167.703 80.3831,166.536 82,165.5C 105.117,176.642 128.284,187.642 151.5,198.5 Z"/></g>
<g><path style="opacity:0.519" fill="#000000" d="M 136.5,225.5 C 136.5,226.833 135.833,227.5 134.5,227.5C 114.931,220.809 95.2647,214.643 75.5,209C 94.0692,217.786 112.736,226.286 131.5,234.5C 131.672,235.492 131.338,236.158 130.5,236.5C 107.523,226.676 85.1896,215.843 63.5,204C 63.8333,203.5 64.1667,203 64.5,202.5C 88.3899,210.575 112.39,218.241 136.5,225.5 Z"/></g>
<g><path style="opacity:0.063" fill="#000000" d="M 240.5,219.5 C 241.833,220.167 241.833,220.167 240.5,219.5 Z"/></g>
<g><path style="opacity:0.524" fill="#000000" d="M 108.5,252.5 C 108.158,253.338 107.492,253.672 106.5,253.5C 93.2127,250.785 79.8794,248.619 66.5,247C 77.4263,250.809 88.4263,254.309 99.5,257.5C 98.7095,258.401 97.7095,259.068 96.5,259.5C 81.3192,253.994 65.9859,248.661 50.5,243.5C 50.7093,242.914 51.0426,242.414 51.5,242C 70.6121,244.789 89.6121,248.289 108.5,252.5 Z"/></g>
<g><path style="opacity:0.524" fill="#000000" d="M 99.5,318.5 C 101.38,318.229 102.713,318.896 103.5,320.5C 87.4862,321.001 71.4862,321.834 55.5,323C 75.7304,325.202 96.0638,326.702 116.5,327.5C 118.403,327.796 120.07,328.463 121.5,329.5C 94.4577,328.289 67.4577,326.622 40.5,324.5C 40.5,323.5 40.5,322.5 40.5,321.5C 60.1775,320.708 79.8442,319.708 99.5,318.5 Z"/></g>
<g><path style="opacity:0.516" fill="#000000" d="M 133.5,345.5 C 134.338,345.842 134.672,346.508 134.5,347.5C 108.834,352.266 83.1677,357.1 57.5,362C 85.1825,361.041 112.849,359.541 140.5,357.5C 141.338,357.842 141.672,358.508 141.5,359.5C 108.833,361.5 76.1667,363.5 43.5,365.5C 43.5,364.5 43.5,363.5 43.5,362.5C 73.5,356.833 103.5,351.167 133.5,345.5 Z"/></g>
<g><path style="opacity:0.507" fill="#000000" d="M 147.5,371.5 C 148.833,371.5 149.5,372.167 149.5,373.5C 121.425,382.02 93.4254,390.853 65.5,400C 95.4193,395.448 125.086,389.948 154.5,383.5C 155.5,383.833 156.167,384.5 156.5,385.5C 121.36,392.831 86.1934,399.164 51,404.5C 50.4092,403.517 50.7425,402.85 52,402.5C 83.8201,392.06 115.653,381.726 147.5,371.5 Z"/></g>
<g><path style="opacity:0.485" fill="#000000" d="M 98.5,470.5 C 96.9731,470.573 95.9731,469.906 95.5,468.5C 131.932,445.918 168.265,423.084 204.5,400C 194.74,402.307 185.073,405.14 175.5,408.5C 175.427,406.973 176.094,405.973 177.5,405.5C 190.821,401.171 204.154,396.838 217.5,392.5C 218.833,393.167 218.833,393.833 217.5,394.5C 177.599,419.608 137.933,444.941 98.5,470.5 Z"/></g>
<g><path style="opacity:0.486" fill="#000000" d="M 160.5,395.5 C 161.833,395.5 162.5,396.167 162.5,397.5C 134.859,409.988 107.526,422.988 80.5,436.5C 79.8333,436.5 79.1667,436.5 78.5,436.5C 77.8333,436.5 77.5,436.167 77.5,435.5C 105.167,422.167 132.833,408.833 160.5,395.5 Z"/></g>
<g><path style="opacity:0.493" fill="#000000" d="M 168.5,408.5 C 169.338,408.842 169.672,409.508 169.5,410.5C 139.5,420.167 109.5,429.833 79.5,439.5C 78.6618,439.158 78.3284,438.492 78.5,437.5C 79.4916,437.672 80.1583,437.338 80.5,436.5C 110.027,427.769 139.36,418.436 168.5,408.5 Z"/></g>
<g><path style="opacity:0.485" fill="#000000" d="M 133.5,489.5 C 132.508,489.672 131.842,489.338 131.5,488.5C 159.803,465.342 188.136,442.175 216.5,419C 177.949,436.275 139.615,454.108 101.5,472.5C 100.508,472.672 99.8417,472.338 99.5,471.5C 141.516,450.872 183.849,430.706 226.5,411C 227.5,410.333 228.5,410.333 229.5,411C 197.653,437.414 165.653,463.581 133.5,489.5 Z"/></g>
<g><path style="opacity:0.98" fill="#b8fe65" d="M 77.5,435.5 C 77.5,436.167 77.8333,436.5 78.5,436.5C 78.5,436.833 78.5,437.167 78.5,437.5C 78.3284,438.492 78.6618,439.158 79.5,439.5C 84.5953,449.362 89.9286,459.029 95.5,468.5C 95.9731,469.906 96.9731,470.573 98.5,470.5C 98.5,471.167 98.8333,471.5 99.5,471.5C 99.8417,472.338 100.508,472.672 101.5,472.5C 111.5,477.833 121.5,483.167 131.5,488.5C 131.842,489.338 132.508,489.672 133.5,489.5C 134.514,490.674 135.847,491.34 137.5,491.5C 137.833,492.5 138.5,493.167 139.5,493.5C 141.337,493.639 141.67,494.306 140.5,495.5C 125.307,503.594 110.307,511.927 95.5,520.5C 87,535.5 78.5,550.5 70,565.5C 61.2932,549.919 52.4598,534.419 43.5,519C 28.9383,510.887 14.2716,503.054 -0.5,495.5C -0.5,494.833 -0.5,494.167 -0.5,493.5C 14.2716,485.946 28.9383,478.113 43.5,470C 52.4598,454.581 61.2932,439.081 70,423.5C 72.7753,427.396 75.2753,431.396 77.5,435.5 Z"/></g>
<g><path style="opacity:0.505" fill="#000000" d="M 287.5,466.5 C 269.544,512.549 251.711,558.549 234,604.5C 258,561.167 282,517.833 306,474.5C 294.177,522.125 282.51,569.791 271,617.5C 288.951,571.64 307.284,525.973 326,480.5C 319.726,530.092 313.726,579.759 308,629.5C 319.216,585.297 330.716,541.297 342.5,497.5C 342.5,499.833 342.5,502.167 342.5,504.5C 330.408,549.971 318.574,595.638 307,641.5C 305.817,642.731 304.651,642.731 303.5,641.5C 310.245,592.542 316.411,543.542 322,494.5C 303.833,540.167 285.667,585.833 267.5,631.5C 266.675,632.386 265.675,632.719 264.5,632.5C 276.843,584.126 289.01,535.793 301,487.5C 276.746,531.006 252.746,574.673 229,618.5C 228.075,617.953 227.242,617.287 226.5,616.5C 244.956,570.946 262.789,525.28 280,479.5C 251.167,519 222.333,558.5 193.5,598C 192.275,598.563 191.275,598.23 190.5,597C 214.59,553.973 238.09,510.807 261,467.5C 227.5,503 194,538.5 160.5,574C 159.275,574.563 158.275,574.23 157.5,573C 187.009,533.079 215.843,492.913 244,452.5C 207.833,482.667 171.667,512.833 135.5,543C 133.473,544.879 131.14,546.046 128.5,546.5C 128.351,545.448 128.517,544.448 129,543.5C 162.167,508.333 195.333,473.167 228.5,438C 198.283,455.451 168.617,473.951 139.5,493.5C 138.5,493.167 137.833,492.5 137.5,491.5C 171.613,470.271 205.613,448.771 239.5,427C 240.167,426.333 240.833,426.333 241.5,427C 208.667,461.833 175.833,496.667 143,531.5C 142.333,532.167 142.333,532.833 143,533.5C 180.292,503.21 217.292,472.544 254,441.5C 254.167,441.833 254.333,442.167 254.5,442.5C 226.245,482.01 197.745,521.344 169,560.5C 168.333,561.167 168.333,561.833 169,562.5C 202.667,526.5 236.333,490.5 270,454.5C 270.667,455.5 270.667,456.5 270,457.5C 246.489,498.867 223.822,540.534 202,582.5C 230.277,543.588 258.777,504.921 287.5,466.5 Z"/></g>
<g><path style="opacity:0.188" fill="#000000" d="M 287.5,465.5 C 288.833,466.167 288.833,466.167 287.5,465.5 Z"/></g>
</svg>
