<?xml version="1.0" encoding="UTF-8"?>
<!DOCTYPE svg PUBLIC "-//W3C//DTD SVG 1.1//EN" "http://www.w3.org/Graphics/SVG/1.1/DTD/svg11.dtd">
<svg xmlns="http://www.w3.org/2000/svg" version="1.1" width="22px" height="22px" style="shape-rendering:geometricPrecision; text-rendering:geometricPrecision; image-rendering:optimizeQuality; fill-rule:evenodd; clip-rule:evenodd" xmlns:xlink="http://www.w3.org/1999/xlink">
<g><path style="opacity:0.942" fill="#f8f8f8" d="M 3.5,-0.5 C 4.5,-0.5 5.5,-0.5 6.5,-0.5C 9.16667,0.833333 11.8333,0.833333 14.5,-0.5C 15.5,-0.5 16.5,-0.5 17.5,-0.5C 17.5,-0.166667 17.5,0.166667 17.5,0.5C 17.0388,2.5504 16.3721,4.5504 15.5,6.5C 16.9459,8.6179 17.6126,10.9512 17.5,13.5C 15.0628,13.2437 12.7294,12.5771 10.5,11.5C 8.27058,12.5771 5.93724,13.2437 3.5,13.5C 4.74254,9.48411 4.74254,5.48411 3.5,1.5C 3.5,0.833333 3.5,0.166667 3.5,-0.5 Z"/></g>
<g><path style="opacity:0.012" fill="#afafaf" d="M 2.5,1.5 C 2.5,2.83333 1.83333,3.5 0.5,3.5C 0.986722,2.52656 1.48672,1.52656 2,0.5C 2.39877,0.728446 2.56544,1.06178 2.5,1.5 Z"/></g>
<g><path style="opacity:0.075" fill="#121212" d="M 17.5,0.5 C 19.1898,0.856369 20.1898,1.85637 20.5,3.5C 19.1667,4.16667 19.1667,4.83333 20.5,5.5C 19.5528,8.7199 19.5528,12.2199 20.5,16C 20.2421,18.0093 19.5755,19.8427 18.5,21.5C 17.8333,21.5 17.1667,21.5 16.5,21.5C 15.0028,20.6942 13.3361,20.0276 11.5,19.5C 9.03448,19.6499 6.36781,19.9832 3.5,20.5C 3.5,19.1667 2.83333,18.5 1.5,18.5C 1.65249,13.6568 1.31916,8.65682 0.5,3.5C 1.83333,3.5 2.5,2.83333 2.5,1.5C 2.83333,1.5 3.16667,1.5 3.5,1.5C 4.74254,5.48411 4.74254,9.48411 3.5,13.5C 5.93724,13.2437 8.27058,12.5771 10.5,11.5C 12.7294,12.5771 15.0628,13.2437 17.5,13.5C 17.6126,10.9512 16.9459,8.6179 15.5,6.5C 16.3721,4.5504 17.0388,2.5504 17.5,0.5 Z"/></g>
<g><path style="opacity:0.004" fill="#dddddd" d="M 20.5,3.5 C 20.8333,3.5 21.1667,3.5 21.5,3.5C 21.5,3.83333 21.5,4.16667 21.5,4.5C 20.8333,4.5 20.5,4.83333 20.5,5.5C 19.1667,4.83333 19.1667,4.16667 20.5,3.5 Z"/></g>
<g><path style="opacity:0.012" fill="#828282" d="M 1.5,18.5 C 2.83333,18.5 3.5,19.1667 3.5,20.5C 2.16667,20.5 1.5,19.8333 1.5,18.5 Z"/></g>
</svg>
