<?xml version="1.0" encoding="UTF-8"?>
<!DOCTYPE svg PUBLIC "-//W3C//DTD SVG 1.1//EN" "http://www.w3.org/Graphics/SVG/1.1/DTD/svg11.dtd">
<svg xmlns="http://www.w3.org/2000/svg" version="1.1" width="14px" height="14px" style="shape-rendering:geometricPrecision; text-rendering:geometricPrecision; image-rendering:optimizeQuality; fill-rule:evenodd; clip-rule:evenodd" xmlns:xlink="http://www.w3.org/1999/xlink">
<g><path style="opacity:0.875" fill="#5ee1e6" d="M -0.5,-0.5 C 0.5,-0.5 1.5,-0.5 2.5,-0.5C 5.16667,0.833333 7.83333,0.833333 10.5,-0.5C 11.5,-0.5 12.5,-0.5 13.5,-0.5C 13.5,0.5 13.5,1.5 13.5,2.5C 12.1667,4.83333 12.1667,7.16667 13.5,9.5C 13.5,10.8333 13.5,12.1667 13.5,13.5C 12.5,13.5 11.5,13.5 10.5,13.5C 8.16667,12.1667 5.83333,12.1667 3.5,13.5C 2.16667,13.5 0.833333,13.5 -0.5,13.5C -0.5,12.5 -0.5,11.5 -0.5,10.5C 0.833333,8.16667 0.833333,5.83333 -0.5,3.5C -0.5,2.16667 -0.5,0.833333 -0.5,-0.5 Z"/></g>
</svg>
