<?xml version="1.0" encoding="UTF-8"?>
<!DOCTYPE svg PUBLIC "-//W3C//DTD SVG 1.1//EN" "http://www.w3.org/Graphics/SVG/1.1/DTD/svg11.dtd">
<svg xmlns="http://www.w3.org/2000/svg" version="1.1" width="601px" height="515px" style="shape-rendering:geometricPrecision; text-rendering:geometricPrecision; image-rendering:optimizeQuality; fill-rule:evenodd; clip-rule:evenodd" xmlns:xlink="http://www.w3.org/1999/xlink">
<g><path style="opacity:0.965" fill="#010101" d="M 454.5,11.5 C 476.419,11.5924 489.919,22.2591 495,43.5C 496.63,58.9613 491.13,71.1279 478.5,80C 459.036,89.9178 442.203,86.7511 428,70.5C 418.829,54.7387 419.495,39.4054 430,24.5C 436.918,17.6264 445.085,13.2931 454.5,11.5 Z"/></g>
<g><path style="opacity:0.978" fill="#62e2e6" d="M 546.5,24.5 C 575.639,24.1384 589.139,38.4717 587,67.5C 579.718,88.2269 565.218,96.7269 543.5,93C 524.167,85.8428 516,72.0095 519,51.5C 522.893,36.997 532.06,27.997 546.5,24.5 Z"/></g>
<g><path style="opacity:1" fill="#fafafa" d="M 463.5,34.5 C 471.886,33.8542 476.552,37.6876 477.5,46C 474.67,55.8031 469.004,63.6364 460.5,69.5C 453.705,65.6835 447.539,61.0169 442,55.5C 436.795,45.9324 439.295,39.599 449.5,36.5C 452.366,36.9312 455.032,37.9312 457.5,39.5C 459.544,37.7806 461.544,36.1139 463.5,34.5 Z"/></g>
<g><path style="opacity:0.738" fill="#020202" d="M 115.5,107.5 C 116.338,107.842 116.672,108.508 116.5,109.5C 106.589,107.671 96.5892,107.171 86.5,108C 69.9888,110.526 65.1554,119.359 72,134.5C 73.1227,137.249 74.6227,139.749 76.5,142C 96.595,143.352 116.262,147.019 135.5,153C 165.052,162.03 193.885,172.864 222,185.5C 233.833,177 245.667,168.5 257.5,160C 258.711,159.107 258.711,158.274 257.5,157.5C 220.739,140.119 182.739,126.119 143.5,115.5C 143.328,114.508 143.662,113.842 144.5,113.5C 184.469,124.767 223.303,139.101 261,156.5C 263.922,155.245 266.589,153.578 269,151.5C 284.727,117.712 300.727,84.0454 317,50.5C 327.209,37.4062 340.042,34.2396 355.5,41C 372.619,49.4411 387.453,60.9411 400,75.5C 433.702,115.581 455.036,161.581 464,213.5C 464.667,223.167 464.667,232.833 464,242.5C 462.884,251.355 459.717,259.355 454.5,266.5C 483.26,286.415 510.426,308.415 536,332.5C 544.084,340.58 551.418,349.247 558,358.5C 562.969,365.604 566.135,373.437 567.5,382C 566.856,389.648 562.856,394.648 555.5,397C 550.476,397.919 545.476,398.919 540.5,400C 553.356,423.489 546.356,435.489 519.5,436C 533.392,460.373 526.225,472.539 498,472.5C 475.646,471.12 453.812,466.954 432.5,460C 307.277,416.883 192.943,354.883 89.5,274C 71.7023,259.869 55.5356,244.036 41,226.5C 34.7634,218.694 30.0967,210.028 27,200.5C 25.4082,192.267 28.2415,186.101 35.5,182C 41.4337,180.342 47.4337,179.009 53.5,178C 40.6271,155.25 47.2938,143.083 73.5,141.5C 67.5613,133.21 66.0613,124.21 69,114.5C 73.6641,109.383 79.4974,106.55 86.5,106C 96.2836,105.19 105.95,105.69 115.5,107.5 Z M 116.5,109.5 C 120.718,118.312 127.718,121.479 137.5,119C 139.388,117.606 141.388,116.44 143.5,115.5C 182.739,126.119 220.739,140.119 257.5,157.5C 258.711,158.274 258.711,159.107 257.5,160C 245.667,168.5 233.833,177 222,185.5C 193.885,172.864 165.052,162.03 135.5,153C 116.262,147.019 96.595,143.352 76.5,142C 74.6227,139.749 73.1227,137.249 72,134.5C 65.1554,119.359 69.9888,110.526 86.5,108C 96.5892,107.171 106.589,107.671 116.5,109.5 Z M 116.5,189.5 C 96.4098,184.215 76.0764,180.215 55.5,177.5C 42.36,154.622 49.0267,143.789 75.5,145C 87.5886,161.257 101.255,176.09 116.5,189.5 Z M 78.5,144.5 C 97.9221,145.618 116.922,149.118 135.5,155C 164.157,163.829 192.157,174.329 219.5,186.5C 207.281,195.043 195.614,204.376 184.5,214.5C 164.513,206.115 144.18,198.615 123.5,192C 106.192,178.196 91.1918,162.363 78.5,144.5 Z M 49.5,180.5 C 51.604,180.201 53.604,180.534 55.5,181.5C 67.1985,198.036 80.8651,212.87 96.5,226C 114.644,241.815 133.644,256.481 153.5,270C 157.442,276.543 162.108,282.543 167.5,288C 173.328,289.981 179.328,291.314 185.5,292C 215.676,311.593 246.676,329.927 278.5,347C 282.712,356.961 286.545,367.128 290,377.5C 295.023,384.489 301.523,386.322 309.5,383C 313.664,378.365 315.664,372.865 315.5,366.5C 368.421,394.196 423.754,415.696 481.5,431C 493.363,433.65 505.363,435.316 517.5,436C 520.067,440.302 522.234,444.802 524,449.5C 526.718,459.9 522.885,466.4 512.5,469C 490.067,471.273 468.067,468.94 446.5,462C 385.778,443.474 327.444,419.141 271.5,389C 205.454,354.571 143.454,314.238 85.5,268C 67.2582,253.093 51.0916,236.26 37,217.5C 32.3603,211.053 29.527,203.886 28.5,196C 28.431,191.209 30.431,187.542 34.5,185C 39.3881,182.7 44.3881,181.2 49.5,180.5 Z M 57.5,181.5 C 79.5397,182.473 101.206,186.639 122.5,194C 137.622,207.057 153.288,219.39 169.5,231C 163.454,238.917 158.288,247.417 154,256.5C 153.674,260.53 153.674,264.53 154,268.5C 125.149,248.212 98.1487,225.545 73,200.5C 67.8145,194.096 62.6478,187.763 57.5,181.5 Z M 129.5,196.5 C 147.732,202.3 165.732,208.8 183.5,216C 179.701,220.801 175.534,225.301 171,229.5C 156.691,219.017 142.858,208.017 129.5,196.5 Z M 319.5,255.5 C 336.294,257.577 352.961,260.41 369.5,264C 411.712,288.886 451.712,316.886 489.5,348C 507.242,362.408 522.909,378.741 536.5,397C 514.319,395.497 492.653,391.164 471.5,384C 415.898,338.773 356.231,299.44 292.5,266C 301.639,262.57 310.639,259.07 319.5,255.5 Z M 375.5,265.5 C 375.735,264.903 376.235,264.57 377,264.5C 396.43,268.211 415.93,271.544 435.5,274.5C 442.252,273.521 448.585,271.687 454.5,269C 488.106,291.746 518.94,317.913 547,347.5C 552.494,354.487 557.494,361.82 562,369.5C 565.669,376.106 566.002,382.772 563,389.5C 555.973,395.786 547.807,398.12 538.5,396.5C 532.24,388.317 525.74,380.317 519,372.5C 475.242,331.225 427.409,295.558 375.5,265.5 Z M 464.5,381.5 C 405.566,361.535 348.899,336.368 294.5,306C 289.68,294.375 285.346,282.542 281.5,270.5C 283.888,268.639 286.554,267.306 289.5,266.5C 336.007,291.242 380.673,318.742 423.5,349C 437.642,359.317 451.308,370.15 464.5,381.5 Z M 257.5,284.5 C 254.91,283.872 252.577,282.705 250.5,281C 252.351,280.163 254.184,279.329 256,278.5C 256.813,280.436 257.313,282.436 257.5,284.5 Z M 190.5,292.5 C 205.551,290.769 220.551,288.603 235.5,286C 239.616,284.795 243.616,283.295 247.5,281.5C 252.361,283.667 256.528,286.667 260,290.5C 266.62,308.52 272.453,326.52 277.5,344.5C 247.609,328.399 218.609,311.066 190.5,292.5 Z M 295.5,309.5 C 340.965,333.6 387.632,355.1 435.5,374C 447.092,378.197 458.759,382.197 470.5,386C 487.577,399.742 502.577,415.409 515.5,433C 504.018,433.17 492.684,431.837 481.5,429C 442.36,418.843 404.36,405.509 367.5,389C 349.712,380.94 332.046,372.606 314.5,364C 307.481,346.111 301.148,327.944 295.5,309.5 Z M 477.5,388.5 C 497.59,393.785 517.924,397.785 538.5,400.5C 551.11,423.107 544.444,433.94 518.5,433C 512.333,425.5 506.167,418 500,410.5C 492.605,402.937 485.105,395.603 477.5,388.5 Z"/></g>
<g><path style="opacity:0.958" fill="#000000" d="M 74.5,40.5 C 97.4191,39.2488 107.252,49.9154 104,72.5C 97.1896,86.3333 86.3563,90.8333 71.5,86C 59.4774,79.1143 55.3108,68.9476 59,55.5C 62.1058,48.2253 67.2724,43.2253 74.5,40.5 Z"/></g>
<g><path style="opacity:1" fill="#fbfbfb" d="M 416.5,267.5 C 395.039,254.878 377.206,238.211 363,217.5C 337.292,181.737 320.626,142.071 313,98.5C 312.5,90.8406 312.334,83.1739 312.5,75.5C 312.842,63.2975 317.175,52.7975 325.5,44C 334.954,39.6882 344.62,39.3549 354.5,43C 370.943,50.7664 385.11,61.5997 397,75.5C 430.716,115.272 452.383,160.939 462,212.5C 462.667,221.833 462.667,231.167 462,240.5C 458.371,268.965 443.204,277.965 416.5,267.5 Z"/></g>
<g><path style="opacity:1" fill="#080b04" d="M 559.5,44.5 C 567.619,44.4687 569.619,47.9687 565.5,55C 559.058,53.6078 553.058,54.7745 547.5,58.5C 546.614,59.325 546.281,60.325 546.5,61.5C 549.807,62.481 553.14,63.481 556.5,64.5C 563.998,60.9937 567.498,63.327 567,71.5C 564.997,73.9221 562.497,74.7554 559.5,74C 557.671,71.4278 555.671,69.0945 553.5,67C 550.595,65.9625 547.761,64.7958 545,63.5C 541.339,66.4059 538.006,66.0725 535,62.5C 534.71,54.9907 538.21,52.6574 545.5,55.5C 548.495,54.3364 551.495,53.1697 554.5,52C 555.953,49.3783 557.62,46.8783 559.5,44.5 Z"/></g>
<g><path style="opacity:1" fill="#fdfdfd" d="M 311.5,71.5 C 310.116,91.3583 312.283,111.025 318,130.5C 332.702,178.757 358.202,220.257 394.5,255C 400.156,259.496 406.156,263.496 412.5,267C 413.738,267.69 413.738,268.19 412.5,268.5C 380.485,263.26 348.485,257.926 316.5,252.5C 302.652,244.487 291.485,233.487 283,219.5C 273.481,203.446 268.315,186.112 267.5,167.5C 267.336,164.813 267.503,162.146 268,159.5C 282.077,129.015 296.41,98.6816 311,68.5C 311.483,69.448 311.649,70.448 311.5,71.5 Z"/></g>
<g><path style="opacity:1" fill="#202020" d="M 331.5,144.5 C 331.5,145.167 331.5,145.833 331.5,146.5C 322.285,124.837 318.785,102.17 321,78.5C 323.724,60.7552 333.891,52.2552 351.5,53C 366.406,57.7481 379.073,65.9148 389.5,77.5C 388.998,78.521 388.332,78.6877 387.5,78C 377.531,66.5163 365.198,58.8496 350.5,55C 334.993,53.8227 325.826,60.9894 323,76.5C 320.69,92.6807 321.69,108.681 326,124.5C 328.131,131.093 329.965,137.759 331.5,144.5 Z"/></g>
<g><path style="opacity:0.959" fill="#62e2e6" d="M 144.5,113.5 C 143.662,113.842 143.328,114.508 143.5,115.5C 141.388,116.44 139.388,117.606 137.5,119C 127.718,121.479 120.718,118.312 116.5,109.5C 116.672,108.508 116.338,107.842 115.5,107.5C 115.518,92.6557 122.851,86.489 137.5,89C 147.838,94.8587 150.172,103.025 144.5,113.5 Z"/></g>
<g><path style="opacity:1" fill="#202020" d="M 311.5,71.5 C 311.232,73.099 311.566,74.4324 312.5,75.5C 312.334,83.1739 312.5,90.8406 313,98.5C 320.626,142.071 337.292,181.737 363,217.5C 377.206,238.211 395.039,254.878 416.5,267.5C 415.262,267.81 415.262,268.31 416.5,269C 414.934,269.765 413.601,269.598 412.5,268.5C 413.738,268.19 413.738,267.69 412.5,267C 406.156,263.496 400.156,259.496 394.5,255C 358.202,220.257 332.702,178.757 318,130.5C 312.283,111.025 310.116,91.3583 311.5,71.5 Z"/></g>
<g><path style="opacity:0.967" fill="#010101" d="M 538.5,127.5 C 565.628,127.794 578.461,141.46 577,168.5C 569.643,190.929 554.476,199.429 531.5,194C 514.561,186.296 507.394,173.129 510,154.5C 513.9,139.43 523.4,130.43 538.5,127.5 Z"/></g>
<g><path style="opacity:1" fill="#5ee1e6" d="M 359.5,136.5 C 365.59,135.438 370.756,137.438 375,142.5C 382.696,151.557 388.029,161.89 391,173.5C 391.667,177.5 391.667,181.5 391,185.5C 390.502,187.544 389.335,188.878 387.5,189.5C 382.95,190.116 378.95,188.949 375.5,186C 362.261,173.69 356.094,158.524 357,140.5C 358.167,139.333 359.333,138.167 360.5,137C 360.272,136.601 359.938,136.435 359.5,136.5 Z"/></g>
<g><path style="opacity:1" fill="#040403" d="M 359.5,136.5 C 359.938,136.435 360.272,136.601 360.5,137C 359.333,138.167 358.167,139.333 357,140.5C 356.094,158.524 362.261,173.69 375.5,186C 378.95,188.949 382.95,190.116 387.5,189.5C 380.167,196.167 372.833,202.833 365.5,209.5C 365.167,209.5 364.833,209.5 364.5,209.5C 350.13,190.433 339.13,169.433 331.5,146.5C 331.5,145.833 331.5,145.167 331.5,144.5C 340.775,141.631 350.108,138.964 359.5,136.5 Z"/></g>
<g><path style="opacity:1" fill="#f9f9f9" d="M 530.5,149.5 C 540.655,151.272 550.655,153.772 560.5,157C 563.003,158.549 563.003,160.216 560.5,162C 552.656,167.848 544.823,173.681 537,179.5C 536.228,179.355 535.561,179.022 535,178.5C 532.759,168.946 531.259,159.279 530.5,149.5 Z"/></g>
<g><path style="opacity:1" fill="#62e2e6" d="M 266.5,162.5 C 266.26,196.864 279.26,225.364 305.5,248C 308.7,250.099 312.033,251.933 315.5,253.5C 316.239,253.369 316.906,253.536 317.5,254C 289.732,264.534 261.732,274.367 233.5,283.5C 229.886,283.196 226.552,282.029 223.5,280C 202.817,261.805 192.65,238.971 193,211.5C 193.667,210.167 194.333,208.833 195,207.5C 219,190.167 243,172.833 267,155.5C 266.793,157.751 266.627,160.085 266.5,162.5 Z"/></g>
<g><path style="opacity:1" fill="#1f1f1f" d="M 364.5,209.5 C 364.833,209.5 365.167,209.5 365.5,209.5C 377.304,224.804 390.971,238.304 406.5,250C 416.077,256.315 426.411,258.315 437.5,256C 443.792,253.038 447.959,248.205 450,241.5C 453.815,228.345 454.482,215.012 452,201.5C 444.94,164.722 430.273,131.389 408,101.5C 407.312,100.668 407.479,100.002 408.5,99.5C 435.577,135.333 451.243,175.666 455.5,220.5C 455.553,230.838 453.053,240.505 448,249.5C 439.551,258.481 429.385,260.981 417.5,257C 395.284,246.286 377.617,230.453 364.5,209.5 Z"/></g>
<g><path style="opacity:1" fill="#1e211a" d="M 266.5,162.5 C 266.216,164.415 266.549,166.081 267.5,167.5C 268.315,186.112 273.481,203.446 283,219.5C 291.485,233.487 302.652,244.487 316.5,252.5C 315.833,252.5 315.5,252.833 315.5,253.5C 312.033,251.933 308.7,250.099 305.5,248C 279.26,225.364 266.26,196.864 266.5,162.5 Z"/></g>
<g><path style="opacity:0.702" fill="#0b0f06" d="M 520.5,225.5 C 552.154,225.986 566.988,241.986 565,273.5C 556.218,298.811 538.718,308.311 512.5,302C 490.06,290.948 482.56,273.448 490,249.5C 496.535,236.79 506.701,228.79 520.5,225.5 Z"/></g>
<g><path style="opacity:1" fill="#62e2e6" d="M 520.5,227.5 C 550.35,227.847 564.516,242.847 563,272.5C 554.86,296.654 538.36,305.821 513.5,300C 494.525,291.222 486.691,276.389 490,255.5C 494.959,240.37 505.126,231.036 520.5,227.5 Z"/></g>
<g><path style="opacity:1" fill="#050602" d="M 520.5,238.5 C 534.723,236.927 543.057,243.094 545.5,257C 544.574,264.362 542.074,271.195 538,277.5C 533.667,283.833 529.333,290.167 525,296.5C 516.678,284.522 510.511,271.522 506.5,257.5C 507.531,248.42 512.198,242.087 520.5,238.5 Z"/></g>
<g><path style="opacity:1" fill="#f3f3f3" d="M 163.5,243.5 C 165.82,256.944 170.987,269.277 179,280.5C 181.869,283.704 185.035,286.537 188.5,289C 177.198,291.332 168.365,287.832 162,278.5C 157.931,271.642 155.931,264.309 156,256.5C 159.017,252.466 161.517,248.133 163.5,243.5 Z"/></g>
<g><path style="opacity:1" fill="#62e2e6" d="M 521.5,249.5 C 533.053,247.992 537.053,252.659 533.5,263.5C 528.702,267.466 523.869,267.466 519,263.5C 516.541,258.203 517.375,253.536 521.5,249.5 Z"/></g>
<!-- <g><path style="opacity:0.485" fill="#ececec" d="M 106.5,312.5 C 107.496,312.414 108.329,312.748 109,313.5C 114.327,324.158 120.16,334.491 126.5,344.5C 137.033,350.263 147.366,356.263 157.5,362.5C 146.42,368.455 135.587,374.788 125,381.5C 119.333,391.833 113.667,402.167 108,412.5C 101.493,402.157 95.4934,391.49 90,380.5C 79.1667,374.333 68.3333,368.167 57.5,362C 68.9125,355.879 80.0792,349.379 91,342.5C 96.4478,332.603 101.614,322.603 106.5,312.5 Z"/></g> -->
<g><path style="opacity:1" fill="#030303" d="M 106.5,315.5 C 107.496,315.414 108.329,315.748 109,316.5C 114.12,326.576 119.62,336.409 125.5,346C 135.327,351.08 144.994,356.413 154.5,362C 144.664,368.086 134.664,373.919 124.5,379.5C 118.746,389.339 113.246,399.339 108,409.5C 102.413,399.994 97.0795,390.327 92,380.5C 81.7467,373.955 71.2467,367.788 60.5,362C 71.1575,356.673 81.4909,350.84 91.5,344.5C 96.781,334.937 101.781,325.27 106.5,315.5 Z"/></g>
<g><path style="opacity:0.931" fill="#62e2e6" d="M 416.5,424.5 C 426.974,422.814 431.807,427.148 431,437.5C 428.27,444.053 423.437,446.22 416.5,444C 408.555,437.503 408.555,431.003 416.5,424.5 Z"/></g>
<!-- <g><path style="opacity:0.517" fill="#ececec" d="M 292.5,426.5 C 298.703,427.592 304.869,428.925 311,430.5C 317.131,428.925 323.297,427.592 329.5,426.5C 327.84,432.482 326.174,438.482 324.5,444.5C 326.482,450.431 328.149,456.431 329.5,462.5C 323.297,461.408 317.131,460.075 311,458.5C 304.869,460.075 298.703,461.408 292.5,462.5C 294.16,456.518 295.826,450.518 297.5,444.5C 295.826,438.482 294.16,432.482 292.5,426.5 Z"/></g> -->
<g><path style="opacity:1" fill="#070707" d="M 294.5,427.5 C 299.705,429.47 305.038,431.136 310.5,432.5C 316.067,430.522 321.734,429.355 327.5,429C 325.473,433.958 324.14,439.125 323.5,444.5C 325.161,450.134 326.328,455.8 327,461.5C 321.617,459.54 316.117,457.873 310.5,456.5C 305.226,458.152 299.892,459.485 294.5,460.5C 296.035,455.225 297.369,449.892 298.5,444.5C 297.451,438.745 296.117,433.079 294.5,427.5 Z"/></g>
</svg>
