<?xml version="1.0" standalone="no"?>
<!DOCTYPE svg PUBLIC "-//W3C//DTD SVG 20010904//EN"
 "http://www.w3.org/TR/2001/REC-SVG-20010904/DTD/svg10.dtd">
<svg version="1.0" xmlns="http://www.w3.org/2000/svg"
 width="601.000000pt" height="515.000000pt" viewBox="0 0 601.000000 515.000000"
 preserveAspectRatio="xMidYMid meet">

<g transform="translate(0.000000,515.000000) scale(0.100000,-0.100000)"
fill="#000000" stroke="none">
<path d="M4479 5005 c-111 -35 -204 -131 -239 -244 -24 -76 -25 -118 -5 -196
84 -325 528 -369 681 -68 26 53 29 67 29 158 0 88 -3 107 -27 157 -33 71 -100
138 -175 174 -69 34 -190 43 -264 19z m255 -236 c71 -62 54 -138 -57 -255
l-65 -69 -58 40 c-121 83 -154 124 -154 191 0 28 8 44 34 70 38 38 70 43 118
18 28 -15 31 -14 52 4 45 41 85 41 130 1z" />
<path d="M3310 4748 c-19 -7 -57 -35 -85 -63 -45 -45 -72 -97 -290 -558 -221
-467 -243 -509 -278 -532 l-37 -25 -128 56 c-177 79 -420 177 -596 241 -160
58 -446 146 -453 139 -5 -4 4 -7 187 -62 140 -42 405 -137 580 -208 190 -78
390 -168 390 -176 0 -4 -84 -66 -186 -139 l-187 -132 -135 56 c-509 213 -956
345 -1255 371 l-77 7 -31 64 c-60 126 -46 207 43 255 40 21 55 23 220 23 97 0
175 1 174 3 -2 1 -50 7 -108 12 -184 18 -303 -13 -356 -90 -20 -30 -23 -43
-19 -88 3 -29 19 -82 35 -117 l30 -63 -62 -7 c-82 -8 -160 -45 -186 -87 -31
-48 -23 -133 19 -216 l31 -62 -43 0 c-72 0 -147 -28 -189 -70 -35 -35 -38 -42
-38 -94 0 -67 19 -118 78 -211 177 -278 635 -672 1263 -1087 1216 -802 2720
-1458 3354 -1461 123 -1 184 13 234 50 77 59 76 154 -6 304 -2 4 25 10 61 14
87 9 165 48 189 95 30 58 13 147 -50 261 -2 3 26 9 62 12 175 16 241 110 185
260 -61 163 -295 419 -631 694 -93 76 -438 336 -467 352 -13 7 -11 14 12 44
48 63 77 167 83 296 29 643 -530 1652 -1056 1904 -73 36 -93 41 -165 43 -44 2
-97 -2 -116 -8z m205 -24 c28 -7 80 -31 117 -51 407 -230 836 -906 970 -1531
19 -88 23 -137 23 -277 0 -152 -2 -177 -23 -237 -56 -162 -158 -226 -312 -194
-424 89 -976 865 -1131 1592 -20 91 -24 137 -24 284 1 156 3 181 23 235 66
177 174 231 357 179z m-400 -417 c1 -217 43 -412 148 -682 194 -501 547 -971
859 -1146 31 -17 42 -27 28 -24 -14 3 -236 41 -495 85 -258 44 -483 86 -500
92 -127 49 -274 218 -375 431 -70 147 -94 245 -95 387 l0 115 214 448 c118
246 215 447 215 447 1 0 1 -69 1 -153z m-2305 -669 c29 -40 130 -149 223 -242
93 -93 161 -166 151 -162 -10 4 -86 25 -169 46 -157 40 -331 70 -408 70 l-46
0 -32 66 c-22 44 -34 86 -37 123 -4 51 -1 61 23 89 34 40 74 62 134 72 103 17
103 17 161 -62z m190 45 c228 -36 613 -155 965 -298 105 -43 202 -82 218 -88
15 -6 27 -14 27 -17 0 -3 -57 -45 -125 -94 -93 -65 -156 -120 -243 -212 -64
-68 -121 -124 -125 -124 -16 0 -408 300 -436 334 -16 19 171 -43 405 -135 86
-34 157 -59 160 -56 6 5 -351 142 -503 191 l-112 37 -118 108 c-149 136 -333
343 -333 374 0 10 82 3 220 -20z m1669 -140 c-28 -122 16 -334 106 -513 92
-183 233 -346 344 -399 34 -16 56 -31 49 -34 -197 -75 -812 -287 -834 -287
-16 0 -50 13 -75 28 -156 100 -313 385 -325 592 -5 70 -2 90 13 117 12 22 129
112 368 282 193 138 353 251 356 251 4 0 3 -17 -2 -37z m-2058 -275 c133 -180
414 -436 754 -690 165 -123 206 -158 232 -201 60 -99 117 -136 211 -137 25 0
88 -34 255 -139 206 -128 540 -324 682 -400 l61 -31 48 -143 c56 -160 71 -188
120 -211 49 -23 90 -20 124 9 38 32 55 74 50 125 -2 22 -3 40 -2 40 0 0 79
-38 175 -84 740 -355 1386 -577 1791 -612 l76 -7 31 -66 c59 -129 48 -202 -39
-251 -40 -22 -59 -25 -172 -28 -151 -5 -276 13 -496 69 -598 152 -1493 551
-2332 1041 -931 544 -1682 1150 -1852 1495 -39 80 -49 169 -24 208 32 49 115
83 207 84 46 1 47 1 100 -71z m138 56 c115 -17 264 -50 394 -88 77 -22 92 -31
237 -147 85 -69 195 -153 243 -188 l88 -64 -24 -26 c-13 -14 -50 -72 -82 -129
-58 -105 -65 -134 -50 -201 4 -17 4 -31 2 -31 -8 0 -318 233 -417 314 -234
191 -436 390 -534 526 l-36 50 36 0 c20 0 84 -7 143 -16z m939 -792 c31 -81
94 -181 149 -235 l48 -48 -65 6 c-36 4 -80 11 -97 17 -60 18 -142 146 -158
245 -6 38 -2 51 36 120 l43 78 12 -65 c7 -36 21 -89 32 -118z m1797 18 c121
-22 236 -42 255 -44 19 -2 155 -24 302 -50 336 -58 382 -58 461 -4 l28 20 122
-88 c143 -103 315 -237 442 -343 125 -104 381 -362 443 -446 184 -249 157
-402 -76 -422 l-67 -5 -65 83 c-190 248 -621 611 -1122 947 -227 152 -469 305
-474 299 -2 -2 42 -32 98 -67 536 -332 975 -660 1272 -950 117 -113 266 -283
266 -302 0 -30 -318 24 -566 96 -78 23 -93 32 -226 139 -418 335 -1041 740
-1585 1032 -40 21 -70 41 -67 44 15 16 293 107 314 104 14 -2 124 -22 245 -43z
m-372 -184 c532 -296 1051 -637 1430 -938 75 -61 137 -112 137 -114 0 -8 -333
111 -509 182 -101 41 -275 116 -385 165 -213 97 -797 389 -832 417 -15 11 -40
73 -78 187 -31 94 -56 175 -56 181 0 10 48 30 77 33 6 1 104 -50 216 -113z
m-527 -48 c7 -21 11 -38 8 -38 -2 0 -23 12 -45 26 -23 14 -43 23 -45 21 -3 -3
19 -18 47 -34 l52 -29 98 -287 c54 -158 96 -287 92 -287 -21 0 -546 305 -769
447 l-139 88 50 3 c163 9 530 84 595 123 26 15 43 5 56 -33z m739 -444 c491
-247 836 -396 1208 -523 98 -33 184 -64 190 -68 6 -4 18 -8 27 -9 8 0 88 -20
176 -42 148 -37 317 -68 419 -74 38 -3 42 -6 75 -68 28 -54 34 -76 35 -128 0
-60 -2 -65 -37 -97 -39 -36 -79 -50 -168 -61 l-55 -6 -64 83 c-62 81 -365 389
-382 389 -5 0 59 -66 142 -147 139 -136 279 -294 279 -316 0 -20 -260 21 -465
73 -359 92 -839 277 -1355 523 l-215 103 -92 269 c-50 149 -92 274 -92 278 -1
11 -38 29 374 -179z"/>
<path d="M3398 4609 c-81 -23 -153 -116 -177 -227 -16 -75 -14 -264 4 -368 79
-462 405 -1044 732 -1304 131 -106 234 -151 338 -152 72 0 101 10 150 53 75
66 108 174 107 348 -2 247 -96 563 -258 871 -83 157 -214 351 -214 316 0 -2
34 -55 76 -117 153 -229 303 -579 353 -825 28 -137 37 -282 22 -371 -70 -409
-441 -330 -837 180 -36 46 -37 48 -18 61 44 32 199 158 202 165 1 5 -16 11
-39 14 -54 7 -102 47 -161 133 -63 92 -99 183 -106 267 -4 59 -2 72 17 98 12
16 16 29 10 29 -6 0 -68 -18 -136 -40 -69 -22 -129 -40 -133 -40 -10 0 -66
196 -85 300 -51 274 -13 483 103 565 40 27 51 30 120 30 62 0 88 -5 134 -27
80 -37 161 -92 230 -156 32 -30 62 -51 66 -47 9 10 -86 94 -172 152 -121 81
-242 115 -328 92z"/>
<path d="M725 4716 c-116 -54 -167 -185 -120 -304 32 -78 128 -142 215 -142
87 0 183 63 215 142 81 198 -118 394 -310 304z" />
<path d="M5586 4685 c-9 -9 -16 -23 -16 -31 0 -17 -117 -77 -125 -64 -10 17
-61 11 -78 -8 -44 -49 8 -117 65 -88 21 11 32 10 77 -8 31 -13 57 -31 64 -45
16 -33 39 -45 69 -38 49 13 54 82 8 107 -16 9 -29 9 -49 0 -22 -9 -37 -7 -76
7 -27 10 -50 23 -51 28 -2 6 20 20 49 33 41 18 59 21 79 13 51 -19 98 32 74
80 -14 30 -66 38 -90 14z" />
<path d="M5323 3842 c-103 -41 -177 -122 -208 -226 -42 -141 19 -298 145 -374
72 -43 121 -55 200 -50 83 6 146 34 208 92 105 99 137 254 79 381 -36 76 -110
147 -183 175 -69 25 -181 26 -241 2z m95 -211 c185 -53 212 -62 212 -75 0 -16
-235 -198 -258 -200 -12 -1 -21 28 -42 141 -26 138 -25 167 4 158 6 -2 44 -13
84 -24z"/>
<path d="M5210 2878 c-308 -49 -437 -421 -224 -648 28 -30 73 -63 113 -83 61
-30 72 -32 171 -32 94 0 111 3 161 28 128 62 213 183 226 318 23 252 -197 457
-447 417z m132 -19 c115 -25 213 -101 265 -207 25 -50 28 -68 28 -152 0 -82
-4 -103 -27 -152 -15 -32 -48 -80 -74 -108 -175 -187 -493 -136 -602 98 -24
50 -27 70 -27 157 0 89 3 106 28 157 50 103 136 172 250 203 65 17 92 18 159
4z"/>
<path d="M5185 2742 c-51 -24 -91 -71 -106 -124 -13 -49 -6 -91 27 -173 27
-65 129 -251 144 -260 11 -7 129 169 176 262 41 82 45 144 13 211 -43 88 -162
127 -254 84z m149 -123 c14 -17 26 -41 26 -54 0 -13 -12 -37 -26 -54 -53 -63
-154 -28 -154 54 0 82 101 117 154 54z"/>
<path d="M995 1840 l-80 -149 -115 -63 c-63 -34 -132 -72 -153 -84 l-39 -22
154 -84 153 -85 81 -146 c44 -81 82 -149 85 -151 2 -3 42 64 88 148 l83 152
149 79 c82 44 147 84 146 88 -1 4 -69 45 -151 90 l-148 82 -79 145 c-43 80
-82 146 -86 147 -5 1 -44 -65 -88 -147z"/>
<path d="M2953 852 c46 -164 46 -140 0 -304 -4 -14 5 -13 78 8 l84 24 82 -24
c46 -13 83 -20 83 -16 0 5 -9 37 -20 72 -11 34 -20 74 -20 88 0 14 9 54 20 88
11 35 20 68 20 72 0 5 -36 -3 -81 -16 l-80 -25 -86 24 c-74 22 -84 23 -80 9z"/>
</g>
</svg>
