<?xml version="1.0" encoding="UTF-8"?>
<!DOCTYPE svg PUBLIC "-//W3C//DTD SVG 1.1//EN" "http://www.w3.org/Graphics/SVG/1.1/DTD/svg11.dtd">
<svg xmlns="http://www.w3.org/2000/svg" version="1.1" width="86px" height="73px" style="shape-rendering:geometricPrecision; text-rendering:geometricPrecision; image-rendering:optimizeQuality; fill-rule:evenodd; clip-rule:evenodd" xmlns:xlink="http://www.w3.org/1999/xlink">
<g><path style="opacity:0.129" fill="#a8f0f0" d="M 35.5,-0.5 C 35.8333,-0.5 36.1667,-0.5 36.5,-0.5C 36.5,5.83333 36.5,12.1667 36.5,18.5C 34.5,18.5 32.5,18.5 30.5,18.5C 31.9187,17.5489 33.5853,17.2155 35.5,17.5C 35.5,11.5 35.5,5.5 35.5,-0.5 Z"/></g>
<g><path style="opacity:1" fill="#62e2e6" d="M 26.5,-0.5 C 29.5,-0.5 32.5,-0.5 35.5,-0.5C 35.5,5.5 35.5,11.5 35.5,17.5C 33.5853,17.2155 31.9187,17.5489 30.5,18.5C 22.8297,21.4868 18.8297,27.1535 18.5,35.5C 12.1667,35.5 5.83333,35.5 -0.5,35.5C -0.5,32.5 -0.5,29.5 -0.5,26.5C 4.16667,13.1667 13.1667,4.16667 26.5,-0.5 Z"/></g>
<g><path style="opacity:1" fill="#f8fdfd" d="M 46.5,32.5 C 46.5,33.5 46.5,34.5 46.5,35.5C 38.7572,36.1299 31.4238,35.4633 24.5,33.5C 25.5633,27.4412 29.23,24.1079 35.5,23.5C 41.3539,24.0349 45.0206,27.0349 46.5,32.5 Z"/></g>
<g><path style="opacity:0.938" fill="#fefefe" d="M -0.5,35.5 C 5.83333,35.5 12.1667,35.5 18.5,35.5C 19.3742,46.2088 25.2075,52.2088 36,53.5C 45.8599,51.6401 51.6932,45.8068 53.5,36C 59.8246,35.5005 66.1579,35.3338 72.5,35.5C 70.4803,56.6202 59.1469,68.9535 38.5,72.5C 36.5,72.5 34.5,72.5 32.5,72.5C 16.0214,69.6925 5.02144,60.3592 -0.5,44.5C -0.5,41.5 -0.5,38.5 -0.5,35.5 Z"/></g>
<g><path style="opacity:0.949" fill="#5ee1e6" d="M 46.5,32.5 C 48.0423,41.0253 44.3756,46.0253 35.5,47.5C 27.1448,46.1773 23.4782,41.5107 24.5,33.5C 31.4238,35.4633 38.7572,36.1299 46.5,35.5C 46.5,34.5 46.5,33.5 46.5,32.5 Z"/></g>
</svg>
