<?xml version="1.0" encoding="UTF-8"?>
<!DOCTYPE svg PUBLIC "-//W3C//DTD SVG 1.1//EN" "http://www.w3.org/Graphics/SVG/1.1/DTD/svg11.dtd">
<svg xmlns="http://www.w3.org/2000/svg" version="1.1" width="40px" height="46px" style="shape-rendering:geometricPrecision; text-rendering:geometricPrecision; image-rendering:optimizeQuality; fill-rule:evenodd; clip-rule:evenodd" xmlns:xlink="http://www.w3.org/1999/xlink">
<g><path style="opacity:0.925" fill="#7de7eb" d="M -0.5,-0.5 C 0.5,-0.5 1.5,-0.5 2.5,-0.5C 7.23583,1.60938 12.2358,3.27605 17.5,4.5C 22.7642,3.27605 27.7642,1.60938 32.5,-0.5C 33.5,-0.5 34.5,-0.5 35.5,-0.5C 33.8402,5.48239 32.1735,11.4824 30.5,17.5C 32.1738,23.5183 33.8405,29.5183 35.5,35.5C 34.8333,35.5 34.1667,35.5 33.5,35.5C 28.3788,33.546 23.0455,31.8794 17.5,30.5C 12.2358,31.7239 7.23583,33.3906 2.5,35.5C 1.5,35.5 0.5,35.5 -0.5,35.5C -0.5,34.5 -0.5,33.5 -0.5,32.5C 1.60938,27.7642 3.27605,22.7642 4.5,17.5C 3.27605,12.2358 1.60938,7.23583 -0.5,2.5C -0.5,1.5 -0.5,0.5 -0.5,-0.5 Z"/></g>
<!-- <g><path style="opacity:0.802" fill="#000000" d="M 47.5,2.5 C 53.1764,2.33391 58.8431,2.50058 64.5,3C 69.0276,7.40086 69.6943,12.4009 66.5,18C 62.4136,20.0532 58.0803,20.8866 53.5,20.5C 53.5,23.8333 53.5,27.1667 53.5,30.5C 51.5,30.5 49.5,30.5 47.5,30.5C 47.5,21.1667 47.5,11.8333 47.5,2.5 Z M 53.5,6.5 C 56.9297,6.10653 60.0964,6.77319 63,8.5C 63.8959,11.025 63.3959,13.1917 61.5,15C 58.854,15.4974 56.1873,15.6641 53.5,15.5C 53.5,12.5 53.5,9.5 53.5,6.5 Z"/></g> -->
<!-- <g><path style="opacity:0.733" fill="#000000" d="M 117.5,2.5 C 119.288,2.21478 120.955,2.54811 122.5,3.5C 123.385,7.44275 121.719,8.94275 117.5,8C 116.248,6.17216 116.248,4.33883 117.5,2.5 Z"/></g> -->
<!-- <g><path style="opacity:0.771" fill="#000000" d="M 145.5,2.5 C 150.123,1.40815 151.956,3.07482 151,7.5C 146.325,9.33395 144.492,7.66729 145.5,2.5 Z"/></g> -->
<!-- <g><path style="opacity:0.821" fill="#000000" d="M 131.5,3.5 C 132.833,3.5 134.167,3.5 135.5,3.5C 135.5,5.83333 135.5,8.16667 135.5,10.5C 137.5,10.5 139.5,10.5 141.5,10.5C 141.5,11.8333 141.5,13.1667 141.5,14.5C 139.5,14.5 137.5,14.5 135.5,14.5C 135.335,18.1817 135.501,21.8484 136,25.5C 137.699,26.4061 139.533,26.7394 141.5,26.5C 141.5,27.8333 141.5,29.1667 141.5,30.5C 138.223,30.7839 135.057,30.4505 132,29.5C 130.612,24.6278 130.112,19.6278 130.5,14.5C 128.833,14.5 127.167,14.5 125.5,14.5C 125.5,13.1667 125.5,11.8333 125.5,10.5C 127.167,10.5 128.833,10.5 130.5,10.5C 130.298,8.05035 130.631,5.71702 131.5,3.5 Z"/></g> -->
<!-- <g><path style="opacity:0.789" fill="#000000" d="M 78.5,9.5 C 89.6671,9.53217 93.8338,14.8655 91,25.5C 86.4012,32.0623 80.5679,33.2289 73.5,29C 68.4264,20.5907 70.0931,14.0907 78.5,9.5 Z M 78.5,14.5 C 83.9061,13.4124 86.9061,15.5791 87.5,21C 85.5384,26.7446 82.0384,27.9113 77,24.5C 74.9254,20.7942 75.4254,17.4609 78.5,14.5 Z"/></g> -->
<!-- <g><path style="opacity:0.759" fill="#000000" d="M 101.5,9.5 C 104.271,9.42074 106.937,9.92074 109.5,11C 111.607,12.2635 112.607,14.0968 112.5,16.5C 111.07,16.4208 109.736,16.7542 108.5,17.5C 106.356,14.238 103.69,13.738 100.5,16C 104.573,17.6503 108.573,19.4836 112.5,21.5C 114.551,26.0595 113.218,29.2262 108.5,31C 103.563,32.3694 99.396,31.2027 96,27.5C 95.51,26.2068 95.3433,24.8734 95.5,23.5C 96.8221,23.67 97.9887,23.3366 99,22.5C 101.003,27.6218 104.17,28.6218 108.5,25.5C 107.91,24.2011 106.91,23.3678 105.5,23C 101.259,22.827 98.0923,20.9937 96,17.5C 95.6745,13.3288 97.5078,10.6621 101.5,9.5 Z"/></g> -->
<!-- <g><path style="opacity:0.859" fill="#000000" d="M 101.5,9.5 C 104.271,9.42074 106.937,9.92074 109.5,11C 111.607,12.2635 112.607,14.0968 112.5,16.5C 111.07,16.4208 109.736,16.7542 108.5,17.5C 106.356,14.238 103.69,13.738 100.5,16C 104.573,17.6503 108.573,19.4836 112.5,21.5C 114.551,26.0595 113.218,29.2262 108.5,31C 103.563,32.3694 99.396,31.2027 96,27.5C 95.51,26.2068 95.3433,24.8734 95.5,23.5C 96.8221,23.67 97.9887,23.3366 99,22.5C 101.003,27.6218 104.17,28.6218 108.5,25.5C 107.91,24.2011 106.91,23.3678 105.5,23C 101.259,22.827 98.0923,20.9937 96,17.5C 95.6745,13.3288 97.5078,10.6621 101.5,9.5 Z"/></g> -->
<!-- <g><path style="opacity:0.776" fill="#000000" d="M 219.5,22.5 C 219.5,24.1667 219.5,25.8333 219.5,27.5C 213.742,32.8041 207.908,32.8041 202,27.5C 201.51,26.2068 201.343,24.8734 201.5,23.5C 202.822,23.67 203.989,23.3366 205,22.5C 206.519,26.8868 209.352,28.2201 213.5,26.5C 214.386,25.675 214.719,24.675 214.5,23.5C 210.279,23.1568 206.446,21.8235 203,19.5C 201.428,11.7379 204.595,8.57124 212.5,10C 216.099,10.7636 218.099,12.9302 218.5,16.5C 217.178,16.33 216.011,16.6634 215,17.5C 212.59,14.2838 209.757,13.7838 206.5,16C 211.235,17.4977 215.569,19.6644 219.5,22.5 Z"/></g> -->
<!-- <g><path style="opacity:0.815" fill="#000000" d="M 117.5,10.5 C 119.167,10.5 120.833,10.5 122.5,10.5C 122.5,17.1667 122.5,23.8333 122.5,30.5C 120.833,30.5 119.167,30.5 117.5,30.5C 117.5,23.8333 117.5,17.1667 117.5,10.5 Z"/></g> -->
<!-- <g><path style="opacity:0.815" fill="#000000" d="M 145.5,10.5 C 147.167,10.5 148.833,10.5 150.5,10.5C 150.5,17.1667 150.5,23.8333 150.5,30.5C 148.833,30.5 147.167,30.5 145.5,30.5C 145.5,23.8333 145.5,17.1667 145.5,10.5 Z"/></g> -->
<!-- <g><path style="opacity:0.802" fill="#000000" d="M 154.5,10.5 C 156.288,10.2148 157.955,10.5481 159.5,11.5C 160.897,16.1921 162.397,20.8588 164,25.5C 166.118,20.9857 167.951,16.319 169.5,11.5C 171.045,10.5481 172.712,10.2148 174.5,10.5C 172.5,17.1667 170.5,23.8333 168.5,30.5C 165.753,30.8134 163.086,30.48 160.5,29.5C 157.69,23.4033 155.69,17.07 154.5,10.5 Z"/></g> -->
<!-- <g><path style="opacity:0.79" fill="#000000" d="M 177.5,10.5 C 179.167,10.5 180.833,10.5 182.5,10.5C 182.334,15.1785 182.501,19.8452 183,24.5C 186.805,27.5388 189.805,26.8721 192,22.5C 192.499,18.5138 192.666,14.5138 192.5,10.5C 194.167,10.5 195.833,10.5 197.5,10.5C 197.5,17.1667 197.5,23.8333 197.5,30.5C 195.234,30.8588 193.401,30.1922 192,28.5C 186.187,33.0038 181.52,32.0038 178,25.5C 177.501,20.5111 177.334,15.5111 177.5,10.5 Z"/></g> -->
</svg>
