<?xml version="1.0" standalone="no"?>
<!DOCTYPE svg PUBLIC "-//W3C//DTD SVG 20010904//EN"
 "http://www.w3.org/TR/2001/REC-SVG-20010904/DTD/svg10.dtd">
<svg version="1.0" xmlns="http://www.w3.org/2000/svg"
 width="106.000000pt" height="103.000000pt" viewBox="0 0 106.000000 103.000000"
 preserveAspectRatio="xMidYMid meet" fill="blue" >

 <!-- #94fb17 -->
<!-- #B9FF66 -->

<g transform="translate(0.000000,103.000000) scale(0.100000,-0.100000)"
fill="#000000" stroke="none">
<path d="M954 942 c49 -94 15 -234 -86 -365 l-30 -37 25 -30 c72 -85 124 -221
113 -298 -7 -55 -43 -117 -60 -103 -15 12 -156 51 -156 43 0 -4 7 -16 15 -26
8 -11 15 -30 15 -43 0 -19 -5 -23 -30 -23 -16 0 -53 9 -82 20 -61 22 -44 4 32
-35 114 -58 231 -53 295 12 81 83 61 230 -51 384 -19 26 -34 49 -34 51 0 3 14
23 31 44 127 160 136 349 19 418 l-32 18 16 -30z" fill="#000000" />
<path d="M394 895 c-111 -24 -207 -92 -256 -181 -39 -73 -44 -114 -18 -147
l21 -27 -20 -26 -21 -27 27 -49 c25 -46 119 -128 147 -128 5 0 23 -12 39 -27
17 -16 26 -21 21 -13 -4 8 -7 25 -6 37 2 16 -5 26 -27 38 -17 8 -33 26 -37 40
-6 26 2 48 16 40 8 -5 18 75 12 95 -2 5 -14 10 -27 10 -13 0 -26 4 -30 9 -3 6
5 8 19 5 20 -3 25 1 31 26 4 16 10 30 14 30 4 0 15 14 24 30 10 17 13 30 8 30
-6 0 -11 -7 -11 -16 0 -9 -6 -14 -13 -11 -7 3 -21 -1 -32 -9 -15 -11 -20 -11
-27 -2 -5 10 -11 8 -23 -7 -14 -17 -14 -15 1 15 9 19 20 42 24 50 11 22 25 12
23 -16 l-2 -25 28 23 c16 13 27 25 26 28 -1 3 6 14 16 24 17 17 19 18 19 3 0
-24 21 -21 27 3 4 15 9 18 18 10 9 -8 11 -4 9 17 -2 16 -1 21 2 13 15 -33 41
-58 53 -51 9 6 8 11 -4 21 -17 14 -20 46 -6 55 6 3 9 -7 8 -22 -2 -33 30 -45
50 -17 7 10 13 14 13 9 0 -5 -7 -17 -17 -27 -15 -17 -15 -18 8 -18 29 -1 69
-32 69 -54 0 -11 9 -16 26 -16 22 0 24 -2 14 -15 -10 -12 -9 -16 4 -21 19 -7
21 -30 4 -37 -8 -4 -5 -8 9 -12 16 -5 25 -20 34 -55 7 -27 16 -47 21 -44 14 9
9 -34 -7 -50 -16 -16 -21 -56 -6 -56 17 0 73 65 99 115 23 43 27 62 27 140 0
80 -3 95 -27 136 -76 129 -228 189 -394 154z" fill='black' />
<path d="M570 557 c-19 -7 -36 -19 -38 -28 -4 -21 41 -40 78 -33 41 9 39 34
-2 34 l-33 0 25 20 c28 22 20 24 -30 7z" fill='black' />
<path d="M396 516 c3 -8 -5 -21 -17 -29 -22 -16 -22 -16 7 -13 16 2 30 5 32 6
1 1 8 3 15 4 6 0 13 11 15 24 3 19 -1 22 -27 22 -22 0 -29 -4 -25 -14z" fill='black' />
<path d="M525 380 c-3 -5 1 -10 9 -10 8 0 18 5 21 10 3 6 -1 10 -9 10 -8 0
-18 -4 -21 -10z" fill='black' />
<path d="M478 373 c7 -3 16 -2 19 1 4 3 -2 6 -13 5 -11 0 -14 -3 -6 -6z"/>
<path d="M565 328 c-16 -5 -43 -14 -60 -18 -26 -8 -24 -9 16 -6 25 1 57 10 70
19 26 19 19 20 -26 5z" fill='black' />
<path d="M565 189 c-28 -12 -44 -15 -57 -8 -15 8 -27 3 -57 -20 -64 -51 -153
-94 -163 -79 -6 10 -8 10 -8 -1 0 -8 -3 -11 -7 -8 -3 4 -13 1 -21 -5 -7 -7
-38 -12 -68 -12 -54 -1 -54 -1 -34 -18 32 -26 98 -41 149 -33 65 10 116 32
194 83 51 33 65 47 57 57 -8 9 -3 14 19 18 15 3 31 14 35 23 9 23 6 24 -39 3z" fill="black" />
</g>
</svg>
