<?xml version="1.0" encoding="UTF-8"?>
<!DOCTYPE svg PUBLIC "-//W3C//DTD SVG 1.1//EN" "http://www.w3.org/Graphics/SVG/1.1/DTD/svg11.dtd">
<svg xmlns="http://www.w3.org/2000/svg" version="1.1" width="359px" height="395px" style="shape-rendering:geometricPrecision; text-rendering:geometricPrecision; image-rendering:optimizeQuality; fill-rule:evenodd; clip-rule:evenodd" xmlns:xlink="http://www.w3.org/1999/xlink">
<g><path style="opacity:0.854" fill="#000000" d="M 239.5,-0.5 C 239.833,-0.5 240.167,-0.5 240.5,-0.5C 244.345,21.2241 248.511,42.8907 253,64.5C 268.698,49.1335 284.698,34.1335 301,19.5C 292.296,39.4157 283.13,59.249 273.5,79C 295.512,76.7601 317.512,74.4267 339.5,72C 320.167,82.6667 300.833,93.3333 281.5,104C 300.833,114.667 320.167,125.333 339.5,136C 317.512,133.573 295.512,131.24 273.5,129C 280.795,143.757 287.962,158.59 295,173.5C 307.34,176.614 319.174,181.114 330.5,187C 339.724,194.42 339.724,201.92 330.5,209.5C 329.508,209.328 328.842,209.662 328.5,210.5C 324.286,212.238 319.952,213.572 315.5,214.5C 317.22,213.136 319.22,212.136 321.5,211.5C 322.833,210.833 322.833,210.167 321.5,209.5C 310.223,204.765 298.557,201.431 286.5,199.5C 286.5,198.833 286.167,198.5 285.5,198.5C 284.662,198.158 284.328,197.492 284.5,196.5C 298.679,199.13 312.346,203.463 325.5,209.5C 331.033,207.41 334.7,203.577 336.5,198C 333.123,191.301 327.789,186.634 320.5,184C 312.681,180.438 304.681,178.271 296.5,177.5C 298.619,181.05 300.119,184.717 301,188.5C 295.532,184.033 290.365,179.2 285.5,174C 272.956,171.279 260.289,169.446 247.5,168.5C 246.648,175.784 245.314,182.951 243.5,190C 252.07,191.821 260.737,192.988 269.5,193.5C 269.672,194.492 269.338,195.158 268.5,195.5C 260.635,194.734 252.802,193.734 245,192.5C 244.055,192.905 243.388,193.572 243,194.5C 242.383,199.253 241.383,203.92 240,208.5C 238.403,202.914 237.236,197.247 236.5,191.5C 229.167,191.167 221.833,190.833 214.5,190.5C 214.293,198.496 212.293,205.996 208.5,213C 210.81,213.497 213.143,213.663 215.5,213.5C 216.338,213.842 216.672,214.508 216.5,215.5C 213.751,215.726 211.084,215.393 208.5,214.5C 205.356,220.62 201.356,226.12 196.5,231C 205.827,231.079 215.16,230.912 224.5,230.5C 225.167,230.5 225.5,230.833 225.5,231.5C 214.574,232.546 203.574,233.379 192.5,234C 173.6,249.066 152.6,252.733 129.5,245C 121.662,241.919 114.662,237.586 108.5,232C 89.4203,230.073 70.4203,227.573 51.5,224.5C 38.5302,226.157 26.1969,229.824 14.5,235.5C 25.9581,240.868 37.9581,244.701 50.5,247C 109.21,256.985 168.21,259.485 227.5,254.5C 226.341,256.25 224.674,257.25 222.5,257.5C 181.802,259.213 141.136,258.713 100.5,256C 80.6333,254.305 60.9667,251.305 41.5,247C 31.1079,244.592 21.1079,241.092 11.5,236.5C 5.96654,238.59 2.29987,242.423 0.5,248C 1.40087,250.571 2.7342,252.904 4.5,255C 15.8259,262.335 28.1593,267.335 41.5,270C 68.8497,276.02 96.5163,279.52 124.5,280.5C 124.672,281.492 124.338,282.158 123.5,282.5C 87.6643,281.548 52.6643,275.714 18.5,265C 11.11,262.314 4.77663,258.147 -0.5,252.5C -0.5,249.833 -0.5,247.167 -0.5,244.5C 2.11846,241.215 5.11846,238.215 8.5,235.5C 5.48016,232.811 2.48016,230.144 -0.5,227.5C -0.5,224.833 -0.5,222.167 -0.5,219.5C 2.11846,216.215 5.11846,213.215 8.5,210.5C 5.48016,207.811 2.48016,205.144 -0.5,202.5C -0.5,199.833 -0.5,197.167 -0.5,194.5C 2.68869,190.149 6.68869,186.649 11.5,184C 36.9041,174.066 63.2374,168.066 90.5,166C 94.3627,160.451 97.8627,154.618 101,148.5C 117.124,128.866 137.957,120.366 163.5,123C 174.833,117 186.167,111 197.5,105C 198.833,104.333 198.833,103.667 197.5,103C 178.34,92.9208 159.34,82.5875 140.5,72C 162.488,74.4267 184.488,76.7601 206.5,79C 196.87,59.249 187.704,39.4157 179,19.5C 195.302,34.1335 211.302,49.1335 227,64.5C 231.489,42.8907 235.655,21.2241 239.5,-0.5 Z M 295.5,27.5 C 287.618,44.9324 279.451,62.2657 271,79.5C 270.251,80.635 270.417,81.635 271.5,82.5C 291.102,79.2945 310.769,76.7945 330.5,75C 312.673,84.4127 295.006,94.0793 277.5,104C 295.006,113.921 312.673,123.587 330.5,133C 310.769,131.205 291.102,128.705 271.5,125.5C 270.417,126.365 270.251,127.365 271,128.5C 278.038,143.41 285.205,158.243 292.5,173C 290.529,173.014 288.529,172.681 286.5,172C 275,161.167 263.5,150.333 252,139.5C 249.631,148.044 247.798,156.711 246.5,165.5C 241.949,165.947 237.616,165.281 233.5,163.5C 231.984,155.42 230.151,147.42 228,139.5C 222.136,145.699 215.969,151.532 209.5,157C 208.668,157.688 208.002,157.521 207.5,156.5C 205.561,152.566 203.228,148.899 200.5,145.5C 203.333,139.833 206.167,134.167 209,128.5C 209.749,127.365 209.583,126.365 208.5,125.5C 199.546,127.017 190.546,128.351 181.5,129.5C 176.44,127.759 171.44,125.925 166.5,124C 178.5,117.333 190.5,110.667 202.5,104C 184.994,94.0793 167.327,84.4127 149.5,75C 169.231,76.7945 188.898,79.2945 208.5,82.5C 208.833,82 209.167,81.5 209.5,81C 201.018,63.2051 192.685,45.3718 184.5,27.5C 199.131,40.962 213.631,54.6287 228,68.5C 232.38,48.2687 236.38,27.9354 240,7.5C 243.466,27.9648 247.466,48.2982 252,68.5C 266.369,54.6287 280.869,40.962 295.5,27.5 Z M 199.5,128.5 C 201.857,128.337 204.19,128.503 206.5,129C 204.398,134.037 201.898,138.871 199,143.5C 194.312,139.311 189.479,135.311 184.5,131.5C 189.651,130.574 194.651,129.574 199.5,128.5 Z M 226.5,143.5 C 228.583,149.941 230.25,156.608 231.5,163.5C 224.499,164.245 217.499,163.912 210.5,162.5C 209.674,161.549 209.508,160.549 210,159.5C 215.395,153.936 220.895,148.603 226.5,143.5 Z M 252.5,143.5 C 262.63,152.46 272.63,161.627 282.5,171C 271.301,169.092 259.968,167.592 248.5,166.5C 249.726,158.813 251.059,151.146 252.5,143.5 Z M 211.5,166.5 C 218.104,165.111 224.77,165.445 231.5,167.5C 233.476,174.715 234.81,182.048 235.5,189.5C 228.49,189.332 221.49,188.999 214.5,188.5C 215.102,180.807 214.102,173.474 211.5,166.5 Z M 233.5,167.5 C 233.917,166.876 234.584,166.543 235.5,166.5C 239.138,167.182 242.805,167.682 246.5,168C 244.629,175.051 243.129,182.218 242,189.5C 240.667,190.833 239.333,190.833 238,189.5C 236.795,181.97 235.295,174.637 233.5,167.5 Z M 90.5,167.5 C 91.0967,167.735 91.4301,168.235 91.5,169C 89.7221,176.381 89.0554,183.881 89.5,191.5C 62.2954,193.177 36.1287,199.177 11,209.5C 5.74251,207.244 2.24251,203.41 0.5,198C 1.40087,195.429 2.7342,193.096 4.5,191C 15.8259,183.665 28.1593,178.665 41.5,176C 57.8629,172.496 74.1962,169.663 90.5,167.5 Z M 284.5,196.5 C 282.418,189.584 279.751,182.918 276.5,176.5C 273.883,182.065 271.55,187.732 269.5,193.5C 260.737,192.988 252.07,191.821 243.5,190C 245.314,182.951 246.648,175.784 247.5,168.5C 260.289,169.446 272.956,171.279 285.5,174C 290.365,179.2 295.532,184.033 301,188.5C 300.119,184.717 298.619,181.05 296.5,177.5C 304.681,178.271 312.681,180.438 320.5,184C 327.789,186.634 333.123,191.301 336.5,198C 334.7,203.577 331.033,207.41 325.5,209.5C 312.346,203.463 298.679,199.13 284.5,196.5 Z M 290.5,175.5 C 293.702,175.537 295.368,177.203 295.5,180.5C 293.5,179.167 291.833,177.5 290.5,175.5 Z M 238.5,192.5 C 239.5,192.5 240.5,192.5 241.5,192.5C 240.498,203.153 239.498,203.153 238.5,192.5 Z M 81.5,193.5 C 84.1667,193.5 86.8333,193.5 89.5,193.5C 90.217,201.204 92.5503,208.371 96.5,215C 81.4632,216.934 66.4632,219.1 51.5,221.5C 39.0716,219.726 27.0716,216.393 15.5,211.5C 14.1667,210.833 14.1667,210.167 15.5,209.5C 23.9324,205.967 32.599,203.134 41.5,201C 54.9117,198.156 68.245,195.656 81.5,193.5 Z M 10.5,211.5 C 22.0539,216.629 34.0539,220.462 46.5,223C 34.1882,225.437 22.3549,229.271 11,234.5C 5.74251,232.244 2.24251,228.41 0.5,223C 1.28913,220.635 2.4558,218.468 4,216.5C 6.35202,214.97 8.51869,213.303 10.5,211.5 Z M 90.5,217.5 C 92.8568,217.337 95.1902,217.503 97.5,218C 99.7798,221.947 102.447,225.613 105.5,229C 89.0525,228.222 72.7191,226.222 56.5,223C 67.9524,221.009 79.2858,219.176 90.5,217.5 Z"/></g>
<g><path style="opacity:1" fill="#f9f9f9" d="M 128.5,152.5 C 131.862,152.07 134.695,153.07 137,155.5C 142.915,166.76 142.915,178.093 137,189.5C 130.891,194.339 126.557,193.006 124,185.5C 119.466,173.544 120.966,162.544 128.5,152.5 Z"/></g>
<g><path style="opacity:1" fill="#f9f9f9" d="M 169.5,152.5 C 172.862,152.07 175.695,153.07 178,155.5C 183.915,166.76 183.915,178.093 178,189.5C 171.891,194.339 167.557,193.006 165,185.5C 160.466,173.544 161.966,162.544 169.5,152.5 Z"/></g>
<g><path style="opacity:0.975" fill="#d8d8d8" d="M 284.5,196.5 C 284.328,197.492 284.662,198.158 285.5,198.5C 286.167,198.5 286.5,198.833 286.5,199.5C 288.892,206.615 291.558,213.615 294.5,220.5C 295.962,221.471 297.295,221.138 298.5,219.5C 298.833,219.5 299.167,219.5 299.5,219.5C 302.152,219.59 304.485,218.924 306.5,217.5C 309.916,217.472 312.916,216.472 315.5,214.5C 319.952,213.572 324.286,212.238 328.5,210.5C 329.492,210.672 330.158,210.338 330.5,209.5C 333.203,209.045 335.87,208.378 338.5,207.5C 339.167,207.833 339.833,208.167 340.5,208.5C 338.568,211.366 336.901,214.366 335.5,217.5C 334.662,217.842 334.328,218.508 334.5,219.5C 331.773,223.577 329.439,227.91 327.5,232.5C 326.833,232.5 326.5,232.833 326.5,233.5C 325.833,233.5 325.5,233.833 325.5,234.5C 324.599,235.29 323.932,236.29 323.5,237.5C 321.766,241.3 319.766,244.966 317.5,248.5C 321.134,251.984 325.134,254.984 329.5,257.5C 329.842,258.338 330.508,258.672 331.5,258.5C 339.792,264.443 348.125,270.443 356.5,276.5C 340.904,279.538 325.238,282.204 309.5,284.5C 310.026,299.196 311.026,313.863 312.5,328.5C 312.167,329.833 311.833,331.167 311.5,332.5C 299.833,321.833 288.167,311.167 276.5,300.5C 264.833,311.167 253.167,321.833 241.5,332.5C 241.167,331.333 240.833,330.167 240.5,329C 241.95,314.195 242.95,299.362 243.5,284.5C 237.181,283.407 230.848,282.407 224.5,281.5C 221.272,280.586 217.939,280.253 214.5,280.5C 208.601,279.267 202.601,277.934 196.5,276.5C 205.234,270.145 213.901,263.812 222.5,257.5C 224.674,257.25 226.341,256.25 227.5,254.5C 230.533,252.984 233.2,250.984 235.5,248.5C 232.139,242.816 228.806,237.149 225.5,231.5C 225.5,230.833 225.167,230.5 224.5,230.5C 222.1,225.368 219.434,220.368 216.5,215.5C 216.672,214.508 216.338,213.842 215.5,213.5C 214.26,212.027 213.26,210.36 212.5,208.5C 213.167,208.167 213.833,207.833 214.5,207.5C 223.474,210.326 232.474,212.993 241.5,215.5C 244.495,217.243 247.829,218.243 251.5,218.5C 252.568,219.434 253.901,219.768 255.5,219.5C 256.5,220.833 257.5,220.833 258.5,219.5C 259.338,219.158 259.672,218.492 259.5,217.5C 262.5,210.167 265.5,202.833 268.5,195.5C 269.338,195.158 269.672,194.492 269.5,193.5C 271.55,187.732 273.883,182.065 276.5,176.5C 279.751,182.918 282.418,189.584 284.5,196.5 Z"/></g>
<g><path style="opacity:0.523" fill="#060606" d="M 241.5,215.5 C 247.5,216.167 253.5,216.833 259.5,217.5C 259.672,218.492 259.338,219.158 258.5,219.5C 257.5,219.5 256.5,219.5 255.5,219.5C 254.432,218.566 253.099,218.232 251.5,218.5C 247.829,218.243 244.495,217.243 241.5,215.5 Z"/></g>
<g><path style="opacity:1" fill="#606060" d="M 315.5,214.5 C 312.916,216.472 309.916,217.472 306.5,217.5C 309.215,215.928 312.215,214.928 315.5,214.5 Z"/></g>
<g><path style="opacity:0.529" fill="#010101" d="M 335.5,217.5 C 336.117,217.611 336.617,217.944 337,218.5C 337.667,221.167 337.667,223.833 337,226.5C 334.688,229.979 331.854,232.979 328.5,235.5C 331.484,237.984 334.318,240.65 337,243.5C 337.667,246.167 337.667,248.833 337,251.5C 335.334,253.996 333.5,256.329 331.5,258.5C 330.508,258.672 329.842,258.338 329.5,257.5C 336.565,252.871 337.565,247.371 332.5,241C 330.333,239.5 328.167,238 326,236.5C 325.329,237.252 324.496,237.586 323.5,237.5C 323.932,236.29 324.599,235.29 325.5,234.5C 326.167,234.5 326.5,234.167 326.5,233.5C 327.167,233.5 327.5,233.167 327.5,232.5C 332.18,231.007 335.18,227.84 336.5,223C 335.915,221.698 335.249,220.531 334.5,219.5C 334.328,218.508 334.662,217.842 335.5,217.5 Z"/></g>
<g><path style="opacity:1" fill="#424242" d="M 306.5,217.5 C 304.485,218.924 302.152,219.59 299.5,219.5C 301.515,218.076 303.848,217.41 306.5,217.5 Z"/></g>
<g><path style="opacity:1" fill="#2f2f2f" d="M 298.5,219.5 C 297.295,221.138 295.962,221.471 294.5,220.5C 295.708,219.766 297.041,219.433 298.5,219.5 Z"/></g>
<g><path style="opacity:0.978" fill="#5CE1E6" d="M 145.5,281.5 C 145.328,282.492 145.662,283.158 146.5,283.5C 150.207,291.371 154.54,298.871 159.5,306C 172.995,313.247 186.329,320.747 199.5,328.5C 185.947,336.864 172.114,344.864 158,352.5C 150.22,366.395 142.72,380.395 135.5,394.5C 135.167,394.5 134.833,394.5 134.5,394.5C 126.846,380.527 119.179,366.527 111.5,352.5C 97.4647,344.485 83.4647,336.485 69.5,328.5C 83.3384,320.413 97.3384,312.58 111.5,305C 115.73,297.609 119.73,290.109 123.5,282.5C 124.338,282.158 124.672,281.492 124.5,280.5C 127.555,274.732 130.888,269.065 134.5,263.5C 138.194,269.517 141.86,275.517 145.5,281.5 Z"/></g>
<g><path style="opacity:0.575" fill="#010101" d="M 214.5,280.5 C 217.939,280.253 221.272,280.586 224.5,281.5C 219.015,282.327 213.348,282.827 207.5,283C 187.169,283.5 166.836,283.667 146.5,283.5C 145.662,283.158 145.328,282.492 145.5,281.5C 168.516,282.435 191.516,282.102 214.5,280.5 Z"/></g>
</svg>
